<svg width="76" height="139" viewBox="0 0 76 139" fill="none" xmlns="http://www.w3.org/2000/svg">
<path d="M76 38.0001C76 55.0458 50.932 103.114 41.5169 120.566C41.175 121.202 40.6675 121.732 40.0483 122.102C39.4291 122.472 38.7213 122.667 38 122.667C37.2787 122.667 36.5709 122.472 35.9517 122.102C35.3325 121.732 34.825 121.202 34.4831 120.566C25.068 103.114 0 55.0458 0 38.0001C0 27.9219 4.00356 18.2564 11.1299 11.1301C18.2563 4.00368 27.9218 0.00012207 38 0.00012207C48.0782 0.00012207 57.7437 4.00368 64.8701 11.1301C71.9964 18.2564 76 27.9219 76 38.0001V38.0001Z" fill="#4F9419"/>
<path d="M38 55.0001C47.3888 55.0001 55 47.389 55 38.0001C55 28.6113 47.3888 21.0001 38 21.0001C28.6112 21.0001 21 28.6113 21 38.0001C21 47.389 28.6112 55.0001 38 55.0001Z" fill="#E6E6E6"/>
<path d="M38 139C41.866 139 45 135.866 45 132C45 128.134 41.866 125 38 125C34.134 125 31 128.134 31 132C31 135.866 34.134 139 38 139Z" fill="#4F9419"/>
</svg>
